<svg version="1.1" id="Layer_1" xmlns="http://www.w3.org/2000/svg" xmlns:xlink="http://www.w3.org/1999/xlink" x="0px" y="0px"
	 width="100%" viewBox="0 0 761 264" enable-background="new 0 0 761 264" xml:space="preserve">
<path fill="#FFFFFF" opacity="1.000000" stroke="none" 
	d="
M541.000000,265.000000 
	C360.710510,265.000000 180.921036,265.000000 1.065777,265.000000 
	C1.065777,177.065353 1.065777,89.130638 1.065777,1.097964 
	C254.666656,1.097964 508.333313,1.097964 761.973022,1.097964 
	C761.973022,89.078926 761.973022,177.039474 761.973022,265.000000 
	C688.463989,265.000000 614.981995,265.000000 541.000000,265.000000 
M457.668091,181.142487 
	C459.334351,181.142532 461.002197,181.190109 462.666534,181.133408 
	C467.128418,180.981415 473.508514,182.478287 475.549561,180.164581 
	C477.943054,177.451370 476.727356,171.410629 476.783936,166.809570 
	C476.899414,157.421707 476.818481,148.031448 476.818481,137.278397 
	C478.850494,139.559250 479.957062,140.713791 480.966400,141.947876 
	C490.761932,153.924667 500.522003,165.930634 510.354004,177.877365 
	C511.368103,179.109558 512.759033,180.890305 514.017090,180.925766 
	C523.250244,181.186020 532.494141,181.066238 543.076355,181.066238 
	C541.319946,178.564926 540.444519,177.083923 539.347290,175.791290 
	C525.884705,159.931870 512.415039,144.078293 498.875854,128.284363 
	C496.835114,125.903740 496.464691,124.174400 498.772552,121.500519 
	C511.931732,106.254471 524.889954,90.834785 537.878479,75.441971 
	C539.061768,74.039597 539.976013,72.410164 541.666504,69.931046 
	C532.256897,69.931046 524.123047,69.722832 516.013245,70.071426 
	C513.875793,70.163300 511.186127,71.449654 509.815125,73.082039 
	C500.076477,84.677055 490.625000,96.513000 481.049408,108.245590 
	C480.010406,109.518677 478.763550,110.622101 476.818695,112.620453 
	C476.818695,110.023705 476.818695,108.865982 476.818665,107.708260 
	C476.818359,96.711014 476.704651,85.711952 476.880798,74.717529 
	C476.940460,70.994537 475.651337,69.682365 471.939819,69.867348 
	C466.787170,70.124184 461.610321,70.020966 456.447754,69.901337 
	C453.846680,69.841057 452.960846,70.855827 452.964752,73.427216 
	C453.017517,108.085114 453.022034,142.743164 452.956055,177.401031 
	C452.950714,180.205002 453.905212,181.454361 457.668091,181.142487 
M638.786865,158.454544 
	C641.424255,169.215622 647.483215,177.361771 658.148621,180.806061 
	C670.978271,184.949265 683.010437,183.569687 692.992493,171.827957 
	C692.992493,177.693451 692.818604,182.495865 693.048706,187.278839 
	C693.225891,190.962006 691.875244,192.329208 688.164612,192.250076 
	C679.669495,192.068863 671.167908,192.194382 662.668945,192.194534 
	C646.169067,192.194855 646.241821,192.191910 646.855957,208.610229 
	C646.968445,211.618378 647.972839,212.779739 650.946838,212.766052 
	C665.944641,212.697006 680.953064,213.061844 695.937805,212.610275 
	C707.641174,212.257584 714.885498,205.867920 714.947388,196.233475 
	C715.142029,165.905121 715.011536,135.574799 715.097839,105.245499 
	C715.106628,102.174057 713.900269,101.072029 710.959595,101.156471 
	C706.963440,101.271217 702.935669,101.468384 698.968567,101.109192 
	C694.118896,100.670097 692.754395,102.477196 692.779663,107.289444 
	C692.850342,120.759758 692.860840,134.268539 691.921753,147.694061 
	C691.152222,158.696182 684.011719,163.788742 672.666992,162.994507 
	C664.327332,162.410660 660.099487,156.675476 660.079407,145.820007 
	C660.054749,132.488342 659.984314,119.155632 660.132141,105.825569 
	C660.170410,102.380486 659.058594,100.971977 655.551880,101.137566 
	C651.395020,101.333839 647.209961,101.377083 643.059021,101.125710 
	C639.200928,100.892059 637.704346,102.143822 637.840515,106.213341 
	C638.119080,114.536331 637.845276,122.876122 637.945068,131.207245 
	C638.050598,140.018890 638.325867,148.828491 638.786865,158.454544 
M262.085785,162.395523 
	C261.099426,162.288177 260.074036,161.951370 259.133209,162.111511 
	C253.856995,163.009598 252.669861,160.612823 252.892181,155.702316 
	C253.283340,147.061813 253.207596,138.384689 252.951447,129.734039 
	C252.583725,117.314354 247.743774,107.402916 235.668213,102.433937 
	C224.966461,98.030281 213.917725,97.904472 203.038559,101.665886 
	C192.843597,105.190735 186.223404,112.371849 182.880997,123.390724 
	C189.893723,125.740654 196.533508,127.965607 203.107895,130.168655 
	C207.968262,119.259705 214.911850,115.690414 224.053970,118.908409 
	C229.411148,120.794121 231.704285,125.509354 230.117020,131.970535 
	C227.912964,131.970535 225.598511,131.835358 223.304489,131.994629 
	C214.730270,132.589890 205.910141,132.220932 197.652405,134.187668 
	C185.508148,137.080002 179.763901,146.100525 179.998032,158.619980 
	C180.202927,169.575729 187.441986,178.811249 198.500839,181.881897 
	C201.839371,182.808899 205.335938,183.645309 208.766434,183.670715 
	C218.189270,183.740540 227.085556,182.181915 232.611145,173.170364 
	C232.894226,172.708694 233.527985,172.462036 234.041687,172.083405 
	C238.844025,181.242645 248.827347,184.032486 262.745972,180.323669 
	C262.745972,174.574112 262.745972,168.798294 262.085785,162.395523 
M602.068970,180.785263 
	C609.579529,177.400421 615.408386,172.092422 619.788696,165.169861 
	C620.962891,163.314255 622.270081,161.338074 619.248779,159.800003 
	C614.090210,157.173935 608.957947,154.496124 603.895203,151.881622 
	C595.250916,162.711273 588.581848,165.571732 579.449158,162.589722 
	C573.340149,160.595001 569.155273,155.437424 568.623291,148.881790 
	C570.463928,148.881790 572.273926,148.881805 574.083984,148.881790 
	C589.079956,148.881622 604.076660,148.804504 619.071472,148.937790 
	C622.626404,148.969376 624.426453,148.014145 624.032410,144.148743 
	C623.578552,139.695679 623.660156,135.171432 622.973206,130.761642 
	C620.296265,113.579330 608.082947,101.705475 589.634827,99.421272 
	C574.460205,97.542397 557.657166,103.697968 549.766907,119.226868 
	C545.376404,127.867859 544.600586,137.015381 545.035645,146.396591 
	C545.803467,162.957657 556.391479,177.034470 571.477722,181.573807 
	C581.459900,184.577377 591.439697,184.532623 602.068970,180.785263 
M378.477295,104.884911 
	C375.688080,107.229118 372.584808,109.289825 370.166443,111.968803 
	C361.681732,121.367805 359.794128,132.977295 360.336304,145.021103 
	C360.770813,154.673035 363.810547,163.520966 370.354065,171.039185 
	C381.972412,184.388214 404.647156,187.039719 419.571991,179.654846 
	C427.395203,175.783859 433.015533,169.567917 437.291229,161.314255 
	C431.015350,158.024094 425.066956,154.905609 419.188782,151.823944 
	C411.151733,162.910416 404.530396,165.675659 394.634613,162.390900 
	C388.101807,160.222443 384.287170,155.443085 384.305511,148.881592 
	C386.095734,148.881592 387.890472,148.881592 389.685211,148.881592 
	C402.015747,148.881592 414.346252,148.881668 426.676788,148.881546 
	C439.299164,148.881409 439.299133,148.881332 439.046295,136.307541 
	C438.735291,120.841835 428.422668,106.037109 414.340973,101.409714 
	C402.234436,97.431366 390.420105,98.501419 378.477295,104.884911 
M68.998154,121.500000 
	C68.998184,139.656952 69.127975,157.815506 68.902283,175.969650 
	C68.849297,180.231491 70.225037,181.507614 74.303596,181.211914 
	C78.611961,180.899567 82.982559,180.869781 87.285362,181.218140 
	C91.606506,181.567978 93.004875,180.244431 92.967583,175.720734 
	C92.751984,149.569885 92.856956,123.416344 92.873611,97.263718 
	C92.874832,95.342949 93.035446,93.422279 93.151260,90.850998 
	C103.732559,90.850998 113.777946,90.850998 123.727768,90.850998 
	C123.727768,83.577377 123.727768,76.995102 123.727768,69.931602 
	C121.577225,69.931602 119.778389,69.931602 117.979561,69.931602 
	C96.324516,69.931595 74.669365,69.897110 53.014492,69.957634 
	C48.056396,69.971489 41.009384,68.427750 38.690758,70.998466 
	C36.021427,73.958015 37.649567,80.698036 37.189911,85.776131 
	C36.816387,89.902626 38.365532,91.334587 42.561787,91.197701 
	C51.169025,90.916931 59.791836,91.113411 68.998146,91.113411 
	C68.998146,101.280342 68.998146,110.890175 68.998154,121.500000 
M342.835663,133.251572 
	C345.214722,132.716904 347.593811,132.182220 350.400299,131.551483 
	C349.948395,129.174301 349.751282,127.211220 349.195496,125.355560 
	C342.781982,103.942245 320.375092,95.363411 298.725861,100.694977 
	C266.781769,108.561859 263.082367,146.838211 276.270660,166.761047 
	C286.434296,182.114716 309.655396,188.158844 328.156982,180.540909 
	C341.061768,175.227432 347.804993,165.070511 351.363251,151.497009 
	C343.703186,149.724442 336.721130,148.108765 329.673401,146.477890 
	C327.657013,153.360580 325.767212,159.277710 319.236176,161.853210 
	C307.026978,166.667862 294.430634,160.056747 292.435303,147.094254 
	C291.653656,142.016312 292.197632,136.358963 293.642578,131.404297 
	C295.657379,124.495461 301.058105,120.617188 308.454956,119.966965 
	C315.863831,119.315697 322.487518,120.487061 326.396179,127.783890 
	C327.818787,130.439590 328.481384,134.776382 330.516846,135.513779 
	C333.181183,136.479019 336.863434,134.641251 340.105743,133.998657 
	C340.755981,133.869781 341.396790,133.693420 342.835663,133.251572 
M125.148529,118.503120 
	C125.148552,137.803391 125.240738,157.104462 125.071602,176.403244 
	C125.037376,180.307770 126.303848,181.877258 130.183701,181.721207 
	C134.336487,181.554184 138.514694,181.476532 142.656982,181.744080 
	C146.742737,182.007980 148.170425,180.600403 148.096786,176.375931 
	C147.858994,162.736801 147.939957,149.090424 148.035339,135.447800 
	C148.091690,127.384865 152.900909,122.384598 160.912094,121.892059 
	C164.228607,121.688164 167.565582,121.699936 170.889709,121.773560 
	C173.587875,121.833313 174.891769,120.808739 174.828003,117.984055 
	C174.726608,113.494003 175.057144,108.974625 174.625031,104.523964 
	C174.501175,103.248230 172.435959,101.225067 171.163956,101.148170 
	C162.717651,100.637566 154.207718,100.439430 148.134567,108.678902 
	C147.591949,101.176689 147.591949,101.175827 140.487808,101.174568 
	C136.661026,101.173889 132.832626,101.245697 129.008026,101.154831 
	C126.255241,101.089417 125.071388,102.274704 125.129181,105.027298 
	C125.216469,109.184982 125.149963,113.345894 125.148529,118.503120 
z"/>
<path fill="#A783FF" opacity="1.000000" stroke="none" 
	d="
M457.191040,181.141754 
	C453.905212,181.454361 452.950714,180.205002 452.956055,177.401031 
	C453.022034,142.743164 453.017517,108.085114 452.964752,73.427216 
	C452.960846,70.855827 453.846680,69.841057 456.447754,69.901337 
	C461.610321,70.020966 466.787170,70.124184 471.939819,69.867348 
	C475.651337,69.682365 476.940460,70.994537 476.880798,74.717529 
	C476.704651,85.711952 476.818359,96.711014 476.818665,107.708260 
	C476.818695,108.865982 476.818695,110.023705 476.818695,112.620453 
	C478.763550,110.622101 480.010406,109.518677 481.049408,108.245590 
	C490.625000,96.513000 500.076477,84.677055 509.815125,73.082039 
	C511.186127,71.449654 513.875793,70.163300 516.013245,70.071426 
	C524.123047,69.722832 532.256897,69.931046 541.666504,69.931046 
	C539.976013,72.410164 539.061768,74.039597 537.878479,75.441971 
	C524.889954,90.834785 511.931732,106.254471 498.772552,121.500519 
	C496.464691,124.174400 496.835114,125.903740 498.875854,128.284363 
	C512.415039,144.078293 525.884705,159.931870 539.347290,175.791290 
	C540.444519,177.083923 541.319946,178.564926 543.076355,181.066238 
	C532.494141,181.066238 523.250244,181.186020 514.017090,180.925766 
	C512.759033,180.890305 511.368103,179.109558 510.354004,177.877365 
	C500.522003,165.930634 490.761932,153.924667 480.966400,141.947876 
	C479.957062,140.713791 478.850494,139.559250 476.818481,137.278397 
	C476.818481,148.031448 476.899414,157.421707 476.783936,166.809570 
	C476.727356,171.410629 477.943054,177.451370 475.549561,180.164581 
	C473.508514,182.478287 467.128418,180.981415 462.666534,181.133408 
	C461.002197,181.190109 459.334351,181.142532 457.191040,181.141754 
z"/>
<path fill="#A783FF" opacity="1.000000" stroke="none" 
	d="
M638.656982,158.046768 
	C638.325867,148.828491 638.050598,140.018890 637.945068,131.207245 
	C637.845276,122.876122 638.119080,114.536331 637.840515,106.213341 
	C637.704346,102.143822 639.200928,100.892059 643.059021,101.125710 
	C647.209961,101.377083 651.395020,101.333839 655.551880,101.137566 
	C659.058594,100.971977 660.170410,102.380486 660.132141,105.825569 
	C659.984314,119.155632 660.054749,132.488342 660.079407,145.820007 
	C660.099487,156.675476 664.327332,162.410660 672.666992,162.994507 
	C684.011719,163.788742 691.152222,158.696182 691.921753,147.694061 
	C692.860840,134.268539 692.850342,120.759758 692.779663,107.289444 
	C692.754395,102.477196 694.118896,100.670097 698.968567,101.109192 
	C702.935669,101.468384 706.963440,101.271217 710.959595,101.156471 
	C713.900269,101.072029 715.106628,102.174057 715.097839,105.245499 
	C715.011536,135.574799 715.142029,165.905121 714.947388,196.233475 
	C714.885498,205.867920 707.641174,212.257584 695.937805,212.610275 
	C680.953064,213.061844 665.944641,212.697006 650.946838,212.766052 
	C647.972839,212.779739 646.968445,211.618378 646.855957,208.610229 
	C646.241821,192.191910 646.169067,192.194855 662.668945,192.194534 
	C671.167908,192.194382 679.669495,192.068863 688.164612,192.250076 
	C691.875244,192.329208 693.225891,190.962006 693.048706,187.278839 
	C692.818604,182.495865 692.992493,177.693451 692.992493,171.827957 
	C683.010437,183.569687 670.978271,184.949265 658.148621,180.806061 
	C647.483215,177.361771 641.424255,169.215622 638.656982,158.046768 
z"/>
<path fill="#A783FF" opacity="1.000000" stroke="none" 
	d="
M262.415894,162.709015 
	C262.745972,168.798294 262.745972,174.574112 262.745972,180.323669 
	C248.827347,184.032486 238.844025,181.242645 234.041687,172.083405 
	C233.527985,172.462036 232.894226,172.708694 232.611145,173.170364 
	C227.085556,182.181915 218.189270,183.740540 208.766434,183.670715 
	C205.335938,183.645309 201.839371,182.808899 198.500839,181.881897 
	C187.441986,178.811249 180.202927,169.575729 179.998032,158.619980 
	C179.763901,146.100525 185.508148,137.080002 197.652405,134.187668 
	C205.910141,132.220932 214.730270,132.589890 223.304489,131.994629 
	C225.598511,131.835358 227.912964,131.970535 230.117020,131.970535 
	C231.704285,125.509354 229.411148,120.794121 224.053970,118.908409 
	C214.911850,115.690414 207.968262,119.259705 203.107895,130.168655 
	C196.533508,127.965607 189.893723,125.740654 182.880997,123.390724 
	C186.223404,112.371849 192.843597,105.190735 203.038559,101.665886 
	C213.917725,97.904472 224.966461,98.030281 235.668213,102.433937 
	C247.743774,107.402916 252.583725,117.314354 252.951447,129.734039 
	C253.207596,138.384689 253.283340,147.061813 252.892181,155.702316 
	C252.669861,160.612823 253.856995,163.009598 259.133209,162.111511 
	C260.074036,161.951370 261.099426,162.288177 262.415894,162.709015 
M203.247543,160.178528 
	C206.307861,165.831573 216.388382,165.992996 222.225311,163.247421 
	C228.247421,160.414749 231.207108,155.570892 230.278061,148.885269 
	C223.316910,149.193878 216.215576,149.087189 209.234146,149.950363 
	C203.557007,150.652283 202.029312,153.646423 203.247543,160.178528 
z"/>
<path fill="#A783FF" opacity="1.000000" stroke="none" 
	d="
M601.698730,180.903839 
	C591.439697,184.532623 581.459900,184.577377 571.477722,181.573807 
	C556.391479,177.034470 545.803467,162.957657 545.035645,146.396591 
	C544.600586,137.015381 545.376404,127.867859 549.766907,119.226868 
	C557.657166,103.697968 574.460205,97.542397 589.634827,99.421272 
	C608.082947,101.705475 620.296265,113.579330 622.973206,130.761642 
	C623.660156,135.171432 623.578552,139.695679 624.032410,144.148743 
	C624.426453,148.014145 622.626404,148.969376 619.071472,148.937790 
	C604.076660,148.804504 589.079956,148.881622 574.083984,148.881790 
	C572.273926,148.881805 570.463928,148.881790 568.623291,148.881790 
	C569.155273,155.437424 573.340149,160.595001 579.449158,162.589722 
	C588.581848,165.571732 595.250916,162.711273 603.895203,151.881622 
	C608.957947,154.496124 614.090210,157.173935 619.248779,159.800003 
	C622.270081,161.338074 620.962891,163.314255 619.788696,165.169861 
	C615.408386,172.092422 609.579529,177.400421 601.698730,180.903839 
M582.510315,131.002533 
	C588.464478,131.002533 594.418701,131.002533 600.472168,131.002533 
	C598.637268,122.901520 591.634460,118.269958 583.139709,119.139885 
	C575.035828,119.969788 569.614929,124.577682 569.563171,131.002533 
	C573.547241,131.002533 577.531616,131.002533 582.510315,131.002533 
z"/>
<path fill="#A783FF" opacity="1.000000" stroke="none" 
	d="
M378.796753,104.697235 
	C390.420105,98.501419 402.234436,97.431366 414.340973,101.409714 
	C428.422668,106.037109 438.735291,120.841835 439.046295,136.307541 
	C439.299133,148.881332 439.299164,148.881409 426.676788,148.881546 
	C414.346252,148.881668 402.015747,148.881592 389.685211,148.881592 
	C387.890472,148.881592 386.095734,148.881592 384.305511,148.881592 
	C384.287170,155.443085 388.101807,160.222443 394.634613,162.390900 
	C404.530396,165.675659 411.151733,162.910416 419.188782,151.823944 
	C425.066956,154.905609 431.015350,158.024094 437.291229,161.314255 
	C433.015533,169.567917 427.395203,175.783859 419.571991,179.654846 
	C404.647156,187.039719 381.972412,184.388214 370.354065,171.039185 
	C363.810547,163.520966 360.770813,154.673035 360.336304,145.021103 
	C359.794128,132.977295 361.681732,121.367805 370.166443,111.968803 
	C372.584808,109.289825 375.688080,107.229118 378.796753,104.697235 
M412.019989,123.450096 
	C403.702576,115.078873 384.785370,119.793739 384.520752,130.704285 
	C394.883698,130.704285 405.240906,130.704285 416.858276,130.704285 
	C415.096191,127.945793 413.826599,125.958237 412.019989,123.450096 
z"/>
<path fill="#A783FF" opacity="1.000000" stroke="none" 
	d="
M68.998154,121.000000 
	C68.998146,110.890175 68.998146,101.280342 68.998146,91.113411 
	C59.791836,91.113411 51.169025,90.916931 42.561787,91.197701 
	C38.365532,91.334587 36.816387,89.902626 37.189911,85.776131 
	C37.649567,80.698036 36.021427,73.958015 38.690758,70.998466 
	C41.009384,68.427750 48.056396,69.971489 53.014492,69.957634 
	C74.669365,69.897110 96.324516,69.931595 117.979561,69.931602 
	C119.778389,69.931602 121.577225,69.931602 123.727768,69.931602 
	C123.727768,76.995102 123.727768,83.577377 123.727768,90.850998 
	C113.777946,90.850998 103.732559,90.850998 93.151260,90.850998 
	C93.035446,93.422279 92.874832,95.342949 92.873611,97.263718 
	C92.856956,123.416344 92.751984,149.569885 92.967583,175.720734 
	C93.004875,180.244431 91.606506,181.567978 87.285362,181.218140 
	C82.982559,180.869781 78.611961,180.899567 74.303596,181.211914 
	C70.225037,181.507614 68.849297,180.231491 68.902283,175.969650 
	C69.127975,157.815506 68.998184,139.656952 68.998154,121.000000 
z"/>
<path fill="#A783FF" opacity="1.000000" stroke="none" 
	d="
M342.438812,133.395264 
	C341.396790,133.693420 340.755981,133.869781 340.105743,133.998657 
	C336.863434,134.641251 333.181183,136.479019 330.516846,135.513779 
	C328.481384,134.776382 327.818787,130.439590 326.396179,127.783890 
	C322.487518,120.487061 315.863831,119.315697 308.454956,119.966965 
	C301.058105,120.617188 295.657379,124.495461 293.642578,131.404297 
	C292.197632,136.358963 291.653656,142.016312 292.435303,147.094254 
	C294.430634,160.056747 307.026978,166.667862 319.236176,161.853210 
	C325.767212,159.277710 327.657013,153.360580 329.673401,146.477890 
	C336.721130,148.108765 343.703186,149.724442 351.363251,151.497009 
	C347.804993,165.070511 341.061768,175.227432 328.156982,180.540909 
	C309.655396,188.158844 286.434296,182.114716 276.270660,166.761047 
	C263.082367,146.838211 266.781769,108.561859 298.725861,100.694977 
	C320.375092,95.363411 342.781982,103.942245 349.195496,125.355560 
	C349.751282,127.211220 349.948395,129.174301 350.400299,131.551483 
	C347.593811,132.182220 345.214722,132.716904 342.438812,133.395264 
z"/>
<path fill="#A885FF" opacity="1.000000" stroke="none" 
	d="
M125.148674,118.004272 
	C125.149963,113.345894 125.216469,109.184982 125.129181,105.027298 
	C125.071388,102.274704 126.255241,101.089417 129.008026,101.154831 
	C132.832626,101.245697 136.661026,101.173889 140.487808,101.174568 
	C147.591949,101.175827 147.591949,101.176689 148.134567,108.678902 
	C154.207718,100.439430 162.717651,100.637566 171.163956,101.148170 
	C172.435959,101.225067 174.501175,103.248230 174.625031,104.523964 
	C175.057144,108.974625 174.726608,113.494003 174.828003,117.984055 
	C174.891769,120.808739 173.587875,121.833313 170.889709,121.773560 
	C167.565582,121.699936 164.228607,121.688164 160.912094,121.892059 
	C152.900909,122.384598 148.091690,127.384865 148.035339,135.447800 
	C147.939957,149.090424 147.858994,162.736801 148.096786,176.375931 
	C148.170425,180.600403 146.742737,182.007980 142.656982,181.744080 
	C138.514694,181.476532 134.336487,181.554184 130.183701,181.721207 
	C126.303848,181.877258 125.037376,180.307770 125.071602,176.403244 
	C125.240738,157.104462 125.148552,137.803391 125.148674,118.004272 
z"/>
<path fill="#FCFAFF" opacity="1.000000" stroke="none" 
	d="
M203.133240,159.826111 
	C202.029312,153.646423 203.557007,150.652283 209.234146,149.950363 
	C216.215576,149.087189 223.316910,149.193878 230.278061,148.885269 
	C231.207108,155.570892 228.247421,160.414749 222.225311,163.247421 
	C216.388382,165.992996 206.307861,165.831573 203.133240,159.826111 
z"/>
<path fill="#FDFCFF" opacity="1.000000" stroke="none" 
	d="
M582.013184,131.002533 
	C577.531616,131.002533 573.547241,131.002533 569.563171,131.002533 
	C569.614929,124.577682 575.035828,119.969788 583.139709,119.139885 
	C591.634460,118.269958 598.637268,122.901520 600.472168,131.002533 
	C594.418701,131.002533 588.464478,131.002533 582.013184,131.002533 
z"/>
<path fill="#FDFCFF" opacity="1.000000" stroke="none" 
	d="
M412.288513,123.710388 
	C413.826599,125.958237 415.096191,127.945793 416.858276,130.704285 
	C405.240906,130.704285 394.883698,130.704285 384.520752,130.704285 
	C384.785370,119.793739 403.702576,115.078873 412.288513,123.710388 
z"/>
</svg>